<svg xmlns="http://www.w3.org/2000/svg" width="297.034" height="24.531" viewBox="0 0 297.034 24.531"><g transform="translate(-2116.756 -63.682)"><path d="M2141.319,77.651a11.645,11.645,0,0,1-3.918,7.6,13.031,13.031,0,0,1-17.136-.511,12.763,12.763,0,0,1,0-17.579,13.031,13.031,0,0,1,17.136-.511,11.647,11.647,0,0,1,3.918,7.6h-3.407a8.461,8.461,0,0,0-2.93-5.246,8.947,8.947,0,0,0-5.86-2.01,8.961,8.961,0,1,0,0,17.919,8.947,8.947,0,0,0,5.86-2.01,8.458,8.458,0,0,0,2.93-5.246Z"/><path d="M2156.922,63.682a12.069,12.069,0,0,1,8.858,3.476,12.76,12.76,0,0,1,0,17.579,13.023,13.023,0,0,1-17.715,0,12.763,12.763,0,0,1,0-17.579A12.067,12.067,0,0,1,2156.922,63.682Zm0,21.225a8.961,8.961,0,1,0,0-17.919,8.961,8.961,0,1,0,0,17.919Z"/><path d="M2191.434,87.872h-3.748l-7.835-11.584h3.27a4.436,4.436,0,0,0,3.271-1.294,4.279,4.279,0,0,0,1.294-3.2,4.323,4.323,0,0,0-1.294-3.237,4.44,4.44,0,0,0-3.271-1.294h-5.655V87.872h-3.407V64.023h9.062a8.018,8.018,0,0,1,5.826,2.147,7.313,7.313,0,0,1,2.146,5.451,7.441,7.441,0,0,1-1.533,4.7,7.145,7.145,0,0,1-4.19,2.59Z"/><path d="M2204.754,64.023a7.928,7.928,0,0,1,5.758,2.181,8.113,8.113,0,0,1,0,11.14,7.928,7.928,0,0,1-5.758,2.18h-5.314v8.348h-3.407V64.023Zm0,12.265a4.436,4.436,0,0,0,3.271-1.294,4.653,4.653,0,0,0,0-6.44,4.44,4.44,0,0,0-3.271-1.294h-5.314v9.028Z"/><path d="M2228.3,63.682a12.072,12.072,0,0,1,8.858,3.476,12.763,12.763,0,0,1,0,17.579,13.025,13.025,0,0,1-17.716,0,12.763,12.763,0,0,1,0-17.579A12.067,12.067,0,0,1,2228.3,63.682Zm0,21.225a8.961,8.961,0,1,0,0-17.919,8.961,8.961,0,1,0,0,17.919Z"/><path d="M2262.807,87.872h-3.748l-7.835-11.584h3.27a4.436,4.436,0,0,0,3.271-1.294,4.279,4.279,0,0,0,1.294-3.2,4.323,4.323,0,0,0-1.294-3.237,4.44,4.44,0,0,0-3.271-1.294h-5.655V87.872h-3.407V64.023h9.062a8.019,8.019,0,0,1,5.826,2.147,7.313,7.313,0,0,1,2.146,5.451,7.441,7.441,0,0,1-1.533,4.7,7.147,7.147,0,0,1-4.19,2.59Z"/><path d="M2278.138,64.023l9.2,23.849h-3.577l-2.112-5.451h-10.766l-2.113,5.451h-3.577l9.2-23.849Zm-6.031,15.161h8.313l-4.156-10.731Z"/><path d="M2313.569,77.651a11.645,11.645,0,0,1-3.918,7.6,13.032,13.032,0,0,1-17.137-.511,12.766,12.766,0,0,1,0-17.579,13.032,13.032,0,0,1,17.137-.511,11.647,11.647,0,0,1,3.918,7.6h-3.407a8.461,8.461,0,0,0-2.93-5.246,8.947,8.947,0,0,0-5.86-2.01,8.961,8.961,0,1,0,0,17.919,8.947,8.947,0,0,0,5.86-2.01,8.458,8.458,0,0,0,2.93-5.246Z"/><path d="M2318.168,64.023h3.407V87.872h-3.407Z"/><path d="M2338.711,63.682a12.069,12.069,0,0,1,8.858,3.476,12.763,12.763,0,0,1,0,17.579,13.025,13.025,0,0,1-17.716,0,12.765,12.765,0,0,1,0-17.579A12.07,12.07,0,0,1,2338.711,63.682Zm0,21.225a8.961,8.961,0,1,0,0-17.919,8.961,8.961,0,1,0,0,17.919Z"/><path d="M2374.245,64.023V87.872h-2.726l-12.264-17.1v17.1h-3.407V64.023h2.725l12.265,17.1v-17.1Z"/><path d="M2391.016,63.816h-9.309V87.65h9.309a11.918,11.918,0,0,0,8.719-3.383,12.539,12.539,0,0,0,0-17.072A11.919,11.919,0,0,0,2391.016,63.816Zm.215,18.56h-4.1V69.09h4.1a6.176,6.176,0,0,1,4.67,1.845,7.427,7.427,0,0,1,.006,9.589A6.175,6.175,0,0,1,2391.231,82.376Z"/><path d="M2406.3,63.816l-2.221,5.274h4.278V87.65h5.428V63.816Z"/></g></svg>